<?xml version="1.0" encoding="utf-8"?>
<!-- Generator: Adobe Illustrator 16.0.4, SVG Export Plug-In . SVG Version: 6.00 Build 0)  -->
<!DOCTYPE svg PUBLIC "-//W3C//DTD SVG 1.1//EN" "http://www.w3.org/Graphics/SVG/1.1/DTD/svg11.dtd">
<svg version="1.1" id="Layer_1" xmlns="http://www.w3.org/2000/svg" xmlns:xlink="http://www.w3.org/1999/xlink" x="0px" y="0px"
	 width="500px" height="500px" viewBox="0 0 500 500" enable-background="new 0 0 500 500" xml:space="preserve">
<path fill="#494445" d="M147.209,132.521c1.875,0,2.813,2.948,2.813,8.843c5.492,16.814,12.325,27.13,20.498,30.947
	c6.296,5.092,15.54,7.638,27.733,7.638h1.607c11.588,0,20.699-5.493,27.331-16.479c1.206,0,2.813-3.216,4.823-9.647
	c0.669-0.603,2.01-3.417,4.02-8.44c1.206-1.071,2.142-1.607,2.813-1.607c1.138,0.336,1.942,1.005,2.411,2.009v1.608
	c-4.421,11.321-7.503,17.886-9.244,19.695c-8.641,12.594-19.628,18.89-32.958,18.89c-25.522,0-42.671-11.521-51.446-34.566
	c-2.413-5.358-3.617-9.511-3.617-12.459v-0.804C143.994,134.397,145.065,132.521,147.209,132.521 M174.54,110.416h0.804
	c1.138,0,2.478,4.02,4.019,12.058c1.741,2.278,3.081,8.174,4.02,17.685v1.207c-0.47,2.411-1.542,3.616-3.216,3.616
	c-2.278,0-3.617-5.225-4.019-15.675c-1.876-4.084-3.484-9.31-4.823-15.675C171.727,111.487,172.798,110.416,174.54,110.416
	 M199.861,109.612c1.541,0,2.478,1.474,2.813,4.421v29.341c-0.201,2.948-1.273,4.421-3.215,4.421c-1.542,0-2.479-1.473-2.815-4.421
	v-29.341C196.847,111.086,197.918,109.612,199.861,109.612"/>
<path fill="#494445" d="M254.32,437.216l-1.77-0.666c-4.483-2.254-8.336-6.626-11.558-13.117
	c-2.229-7.187-2.577-12.818-1.038-16.896l1.556-4.128c1.41-3.738,4.43-7.875,9.061-12.414c5.068-4.656,12.277-7.105,21.629-7.338
	l2.765,0.706l1.475,0.555c6.93,2.615,12.771,8.859,17.523,18.735c0.807,2.325,0.479,7.363-0.987,15.12l-1.558,4.129
	c-0.962,2.107-2.157,2.891-3.581,2.354c-1.13-0.425-1.41-1.768-0.843-4.021l1.225-3.244c2.133-9.078,2.288-13.958,0.469-14.642
	c-3.575-7.188-8.117-11.819-13.622-13.895l-2.95-1.111c-5.882-0.479-11.796,1.217-17.749,5.093c-4.564,4.958-7.115,8.15-7.653,9.577
	l-2.335,6.192c-1.539,4.077-0.945,9.354,1.778,15.827c1.948,2.868,4.342,5.455,7.178,7.76l3.833,1.444
	c4.424,1.668,8.691,1.369,12.801-0.898c3.166-1.838,5.098-3.692,5.803-5.558l0.89-2.36c1.854-4.915,1.826-10.203-0.082-15.861
	c-1.323-2.297-2.746-4.18-4.269-5.65l-0.294-0.111c-5.9-2.226-11.151-0.5-15.762,5.173l-2.111,5.602
	c-1.149,3.046,0.186,6.355,4.002,9.93l3.244,1.224c1.671,0.631,3.824-0.018,6.458-1.944l0.223-0.588
	c1.26-3.345-0.677-6.543-5.812-9.604l-0.215-2.102c0.426-1.131,1.767-1.412,4.021-0.841c2.803,1.057,4.926,3.767,6.366,8.127
	c0.672,2.386,0.693,4.413,0.063,6.087c-1.131,2.997-4.527,4.86-10.191,5.587c-0.934,0.098-2.09-0.115-3.467-0.635l-2.064-0.778
	c-2.897-1.091-5.45-4.748-7.65-10.97c0.084-2.604,0.359-4.521,0.821-5.75l1.335-3.54c1.687-4.473,5.911-7.932,12.67-10.378
	c4.035-0.275,7.182,0.015,9.441,0.864c2.998,1.579,5.781,5.213,8.354,10.897c1.192,6.962,0.898,12.802-0.882,17.519l-0.445,1.183
	c-1.741,4.616-6.333,8.162-13.777,10.634C262.112,439.03,258.007,438.605,254.32,437.216"/>
<path fill="#494445" d="M125.883,182.485l2.131,0.401c5.512,1.655,10.733,5.829,15.661,12.522
	c3.949,7.676,5.459,13.968,4.533,18.882l-0.94,4.973c-0.85,4.5-3.441,9.774-7.77,15.825c-4.802,6.267-12.461,10.462-22.979,12.585
	l-3.264-0.249l-1.776-0.335c-8.35-1.576-16.188-7.47-23.517-17.685c-1.375-2.466-2.004-8.225-1.889-17.278l0.939-4.975
	c0.668-2.57,1.861-3.695,3.58-3.371c1.361,0.258,1.944,1.717,1.749,4.377l-0.738,3.907c-0.606,10.679,0.187,16.223,2.378,16.636
	c5.468,7.41,11.518,11.74,18.148,12.991l3.553,0.67c6.739-0.626,13.087-3.72,19.042-9.281c4.171-6.508,6.42-10.621,6.744-12.338
	l1.411-7.459c0.926-4.914-0.792-10.756-5.155-17.529c-2.772-2.853-5.99-5.299-9.65-7.339l-4.618-0.874
	c-5.329-1.005-10.093,0.181-14.284,3.559c-3.209,2.705-5.025,5.184-5.451,7.432l-0.535,2.843c-1.118,5.92-0.037,11.888,3.241,17.901
	c1.952,2.333,3.933,4.178,5.946,5.537l0.354,0.068c7.104,1.34,12.696-1.649,16.777-8.975l1.274-6.749
	c0.692-3.669-1.473-7.144-6.494-10.421l-3.907-0.738c-2.014-0.381-4.318,0.778-6.912,3.477l-0.134,0.71
	c-0.761,4.028,2.063,7.257,8.471,9.694l0.663,2.331c-0.257,1.363-1.715,1.946-4.376,1.749c-3.375-0.637-6.312-3.275-8.807-7.917
	c-1.233-2.562-1.659-4.851-1.279-6.863c0.682-3.611,4.15-6.391,10.402-8.337c1.037-0.294,2.384-0.287,4.042,0.026l2.486,0.471
	c3.491,0.658,7.1,4.283,10.823,10.873c0.422,2.961,0.494,5.183,0.214,6.662l-0.804,4.262c-1.018,5.389-5.103,10.136-12.254,14.242
	c-4.503,1.115-8.116,1.411-10.837,0.898c-3.701-1.189-7.568-4.739-11.601-10.652c-2.73-7.627-3.559-14.283-2.486-19.967l0.27-1.422
	c1.051-5.563,5.534-10.481,13.453-14.75C116.719,181.983,121.442,181.648,125.883,182.485"/>
<path fill="#494445" d="M355.328,267.318c-1.368-0.816-7.54-1.225-18.519-1.225c-0.636,0-1.288,0.002-1.954,0.005
	c-38.926-3.854-59.018-6.154-60.271-6.9l-2.245-18.616c-0.326-14.588-2.478-26.34-6.451-35.256c-0.77-0.458-1.558-0.69-2.361-0.69
	c-1.717,0-3.51,1.046-5.382,3.139c-3.014,12.075-9.332,29.247-18.95,51.512l-56.686-6.333c-12.704-2.63-21.769-3.946-27.196-3.946
	c-3.332,0-5.294,0.495-5.885,1.488c-1.843,3.09-1.028,5.669,2.449,7.741l8.688,5.185c2.683,1.863,4.266,3.592,4.754,5.19
	l52.619,44.737c-2.389,8.392-10.506,29.461-24.356,63.208l-3.8,6.37c-1.786,2.992-1.471,5.535,0.944,7.631
	c0.735,0.439,1.496,0.658,2.283,0.658c2.928,0,6.207-3.044,9.838-9.133c15.994-17.156,26.03-26.088,30.117-26.791l18.817-13.117
	l58.645,49.118c1.271,0.758,2.461,1.137,3.571,1.137c1.5,0,2.854-0.691,4.059-2.081l0.804-2.661
	c-7.338-19.95-16.881-43.442-28.63-70.475l0.346-0.577c22.102-17.309,37.608-27.951,46.525-31.924
	c12.204-5.544,18.711-8.989,19.518-10.341l0.347-0.58C358.576,271.089,358.029,268.931,355.328,267.318 M333.51,276.656
	c-9.664,4.309-25.485,15.115-48.372,33.035c-0.855,0.669-1.58,1.489-2.136,2.423l-0.346,0.58c-1.456,2.438-1.648,5.429-0.516,8.035
	c8.656,19.912,16.172,38.057,22.438,54.165l-47.135-39.48c-1.631-1.366-3.645-2.059-5.663-2.059c-1.758,0-3.522,0.525-5.043,1.585
	l-17.575,12.253c-3.625,1.266-9.094,4.812-20.794,16.447c10.041-24.833,15.969-40.565,18.054-47.875
	c0.944-3.324-0.138-6.896-2.772-9.135l-51.189-43.522c-0.734-1.25-1.684-2.462-2.864-3.641c3.113,0.531,6.788,1.227,11.125,2.122
	c0.269,0.058,0.539,0.099,0.808,0.129l56.686,6.333c0.33,0.037,0.657,0.055,0.983,0.055c3.485,0,6.686-2.067,8.093-5.322
	c6.45-14.932,11.392-27.474,14.927-37.904c0.737,4.789,1.173,10.097,1.304,15.901c0.006,0.287,0.025,0.573,0.06,0.858l2.245,18.613
	c0.327,2.713,1.893,5.121,4.239,6.52c2.378,1.421,3.575,2.132,63.92,8.104c0.288,0.025,0.578,0.043,0.867,0.043h0.036
	c0.655-0.003,1.296-0.006,1.919-0.006h0.496C336.145,275.453,334.882,276.033,333.51,276.656"/>
<path fill="#494445" d="M84.512,165.137c0.669-0.594,0.75-1.307,0.241-2.139L70.83,146.732l3.615-5.306
	c0.184-1.146,2.654-3.982,7.407-8.509c2.147-1.313,2.927-2.452,2.337-3.419c-0.594-0.669-1.306-0.749-2.139-0.241l-1.771,1.084
	c-9.403,3.978-15.277,6.313-17.619,7.007L49.98,122.754c-0.449-0.132-0.937-0.57-1.467-1.315l-1.477-2.417
	c-0.59-0.965-1.315-1.187-2.176-0.661c-0.722,0.443-0.461,3.526,0.79,9.253l1.943,15.845c-6.204,2.759-10.991,4.579-14.361,5.459
	c-0.851,0.778-1.072,1.504-0.662,2.174c2.507,1.086,5.803,1.652,9.887,1.701l5.216,0.572c0.212,0.348,0.917,5.964,2.113,16.848
	c0.023,3.414,0.155,5.324,0.402,5.727c0.459,0.751,1.067,0.896,1.817,0.438l0.161-0.098c0.376-0.23,1.322-2.061,2.837-5.494
	c1.085-2.506,4.018-6.879,8.795-13.118l0.161-0.098c7.601,3.208,14.205,5.808,19.811,7.802L84.512,165.137z"/>
<path fill="#494445" d="M406.899,176.196l-3.148-1.379c-0.981-0.516-1.589-1.032-1.82-1.55l-19.628-12.855
	c0.451-2.93,2.297-10.375,5.538-22.337l1.012-2.306c0.476-1.085,0.26-1.929-0.642-2.533c-1.259-0.552-2.5,0.571-3.728,3.368
	c-4.665,6.46-7.671,9.894-9.019,10.304l-5.788,5.218l-21.845-14.079c-1.082-0.475-1.926-0.26-2.532,0.641l-0.157,0.932
	c3.316,6.414,7.524,13.928,12.629,22.545l-0.092,0.209c-6.719,6.769-11.495,11.01-14.333,12.727
	c-3.88,2.384-5.927,3.821-6.141,4.312l-0.094,0.21c-0.428,0.979-0.153,1.683,0.825,2.112c0.524,0.229,2.843,0.078,6.952-0.455
	c13.285-0.347,20.153-0.422,20.608-0.222l1.543,6.18c0.728,4.903,1.949,8.773,3.665,11.612c0.874,0.382,1.709-0.001,2.506-1.154
	c0.507-4.196,1.909-10.252,4.21-18.163l19.376-0.264c7.09,0.566,10.841,0.377,11.254-0.568
	C408.543,177.582,408.158,176.747,406.899,176.196"/>
<path fill="#494445" d="M132.953,28.949c5.608,6.426,12.626,13.947,20.86,22.361c-5.75,9.545-10.049,15.768-12.786,18.499
	c-5.921,5.996-6.055,6.759-6.126,7.168l-0.047,0.271c-0.29,1.665,0.497,2.786,2.162,3.077c0.372,0.063,1.164,0.199,7.618-2.267
	l0.675-0.264c17.208-4.7,22.126-5.871,23.33-6.088l3.31,6.272c2.274,5.572,4.882,9.853,7.749,12.724l0.164,0.165l0.23,0.04
	c0.168,0.029,0.333,0.044,0.494,0.044c0.312,0,0.611-0.054,0.894-0.164c0.854-0.326,1.533-1.135,2.014-2.401l0.066-0.171
	l-0.021-0.179c-0.59-4.883-0.69-12.184-0.3-21.708l21.908-5.688c5.321-0.865,8.944-1.68,11.074-2.496
	c1.586-0.606,2.353-1.217,2.485-1.982c0.164-0.934,0.003-1.713-0.474-2.314c-0.457-0.575-1.191-0.954-2.182-1.127l-4.014-0.698
	c-1.396-0.344-1.945-0.745-2.16-1.021l-0.132-0.171l-26.299-9.287c-0.267-3.812-0.229-12.902,0.102-26.949l0.521-2.978
	c0.304-1.743-0.388-3.018-2.067-3.617c-0.476-0.084-0.93-0.044-1.355,0.119c-1.378,0.527-2.314,2.29-2.865,5.392
	c-4.583,11.3-6.497,13.72-7.23,14.155l-5.172,7.486l-29.058-10.009c-0.727-0.127-1.37-0.085-1.914,0.124
	c-0.776,0.296-1.339,0.908-1.671,1.818l-0.054,0.148l0.112,1.532L132.953,28.949z M178.436,42.458
	c0.148,1.686,1.276,3.14,2.871,3.703l25.602,9.041c-0.787,0.142-1.644,0.289-2.578,0.44c-0.131,0.02-0.261,0.048-0.394,0.082
	l-22.505,5.841c-0.156,0.04-0.309,0.09-0.457,0.146c-1.613,0.617-2.704,2.131-2.779,3.86c-0.221,5.188-0.301,9.63-0.249,13.471
	c-0.446-0.939-0.885-1.935-1.313-2.98c-0.053-0.13-0.114-0.257-0.178-0.38l-3.563-6.761c-0.621-1.177-1.777-2.019-3.086-2.246
	c-0.218-0.037-0.412-0.072-0.699-0.072c-1.396,0-4.962,0.807-23.662,5.903c3.05-3.36,7.278-9.559,12.879-18.875
	c0.275-0.459,0.462-0.959,0.554-1.487l0.047-0.271c0.24-1.369-0.198-2.78-1.171-3.776c-5.344-5.453-10.199-10.557-14.465-15.206
	l20.965,7.23c0.96,0.331,2.008,0.314,2.958-0.05c0.831-0.317,1.534-0.875,2.034-1.61l4.854-7.141
	c0.924-0.802,2.142-2.256,4.176-6.368C178.139,33.924,178.19,39.667,178.436,42.458"/>
<path fill="#494445" d="M248.566,455.646c-0.969-0.706-2.466-0.62-4.453,0.227c-8.309,1.582-9.672,1.194-9.859,1.097l-5.686-0.235
	l-4.692-18.996c-0.233-0.549-0.554-0.977-0.952-1.267c-0.584-0.428-1.305-0.562-2.102-0.379l-1.309,0.85l-0.104,0.374
	c-1.494,5.196-3.092,11.521-4.75,18.804c-6.906,0.204-11.595,0.052-13.945-0.456c-5.149-1.077-5.951-0.996-6.443-0.781l-0.171,0.069
	c-0.662,0.281-1.113,0.709-1.339,1.266c-0.226,0.557-0.198,1.174,0.084,1.837c0.194,0.457,0.653,1.077,4.134,3.626l0.329,0.235
	c7.74,6.934,10.316,9.359,11.173,10.206l-1.986,3.543c-2.285,3.272-3.736,6.281-4.312,8.942l-0.073,0.345l0.139,0.327
	c0.171,0.405,0.429,0.735,0.764,0.982c0.631,0.459,1.481,0.586,2.657,0.336l0.356-0.21c2.373-1.972,6.153-4.495,11.241-7.51
	l10.43,9.58c2.377,2.633,4.128,4.35,5.357,5.251c0.807,0.588,1.415,0.853,1.972,0.853c0.215,0,0.42-0.043,0.614-0.124
	c0.732-0.31,1.234-0.815,1.453-1.461c0.203-0.605,0.145-1.292-0.172-2.038l-1.016-2.395c-0.289-0.838-0.207-1.12-0.207-1.12
	l0.11-0.307l-4.146-17.386c2.147-1.557,6.963-4.631,14.264-9.112l1.807-0.767c1.361-0.577,1.949-1.723,1.582-3.244
	C249.147,456.212,248.895,455.888,248.566,455.646 M210.675,477.546l2.177-3.873c0.521-0.925,0.583-2.062,0.169-3.04
	c-0.372-0.879-0.507-1.2-10.405-10.098c2.991,0.273,7.246,0.316,12.904,0.13c0.429-0.012,0.847-0.104,1.233-0.268l0.169-0.071
	c1.02-0.434,1.774-1.338,2.02-2.42c0.862-3.818,1.721-7.428,2.561-10.758l2.833,11.507c0.194,0.784,0.659,1.481,1.313,1.961
	c0.573,0.416,1.249,0.646,1.957,0.663l5.525,0.132c0.516,0.141,1.205,0.256,2.503,0.227c-3.702,2.34-6.115,3.956-7.349,4.915
	c-1.065,0.83-1.549,2.214-1.237,3.522l3.538,14.84l-10.837-9.962c-0.096-0.089-0.197-0.172-0.297-0.244
	c-0.597-0.434-1.302-0.666-2.038-0.666c-0.616,0-1.22,0.164-1.749,0.477C213.82,475.602,212.169,476.604,210.675,477.546"/>
<path fill="#494445" d="M263.949,120.518c1.734,1.309,4.826,3.016,9.393,5.184l18.503,11.005c-2.165,8.773-4.187,15.39-6.014,19.676
	l-0.074,0.171l0.016,0.189c0.107,1.301,0.52,2.234,1.226,2.768v0.001c0.356,0.271,0.781,0.434,1.264,0.488l0.239,0.026l0.211-0.118
	c3.385-1.865,6.904-5.084,10.411-9.518l4.688-4.855c1.192,0.592,5.48,3.04,19.578,11.665l0.603,0.457
	c4.616,3.495,5.795,4.035,6.381,4.1c0.146,0.017,0.288,0.024,0.425,0.024c1.385,0,2.264-0.825,2.431-2.312l0.026-0.257
	c0.061-0.556-0.171-1.692-3.701-8.205c-1.762-3.203-4.031-10.001-6.744-20.207c9.733-5.488,18.115-10.484,24.925-14.853l0.214-0.136
	l0.519-1.399l-0.012-0.162c-0.062-0.937-0.421-1.658-1.066-2.147c-0.454-0.341-1.039-0.554-1.863-0.635l-29.01,1.435l-2.567-7.899
	l-0.168-0.282c-0.547-0.586-1.642-3.289-2.829-14.792c0.32-2.996-0.076-4.868-1.21-5.727c-0.352-0.268-0.77-0.428-1.366-0.482
	c-1.605,0.105-2.59,1.104-2.776,2.809l-0.296,2.744c-3.423,12.951-5.793,21.244-7.054,24.676l-26.435,1.504l-0.178,0.129
	c-0.215,0.157-0.775,0.405-2.156,0.354l-3.894-0.429c-0.97-0.109-1.751,0.049-2.329,0.46c-0.611,0.432-0.972,1.115-1.072,2.028
	C262.102,118.752,262.646,119.53,263.949,120.518 M319.965,126.746c-1.169,0.657-1.952,1.844-2.101,3.181l-0.028,0.257
	c-0.056,0.515-0.018,1.029,0.114,1.524c2.603,9.839,4.792,16.564,6.662,20.464c-18.785-11.484-19.31-11.543-20.532-11.678
	c-0.155-0.018-0.311-0.026-0.464-0.026c-1.128,0-2.2,0.453-2.997,1.276l-5.044,5.224c-0.094,0.097-0.181,0.199-0.268,0.306
	c-0.604,0.762-1.205,1.485-1.804,2.166c1.042-3.431,2.118-7.422,3.264-12.102c0.396-1.618-0.203-3.314-1.534-4.32
	c-0.122-0.093-0.251-0.179-0.385-0.261l-18.988-11.293c-0.11-0.066-0.224-0.128-0.339-0.183c-0.733-0.348-1.408-0.674-2.03-0.981
	l25.532-1.454c1.627-0.091,3.06-1.133,3.652-2.655c0.952-2.449,2.498-7.595,4.715-15.682c0.75,4.101,1.461,5.712,2.079,6.673
	l2.535,7.795c0.265,0.814,0.763,1.52,1.451,2.039c0.779,0.589,1.756,0.883,2.724,0.841l20.811-1.029
	C331.912,119.907,326.198,123.234,319.965,126.746"/>
<path fill="#494445" d="M410.541,21.639h2.744c13.502,1.144,20.251,2.289,20.251,3.432c2.632,0,8.238,3.661,16.819,10.983
	c7.836,7.837,12.87,15.159,15.101,21.966c1.145,4.52,1.717,7.608,1.717,9.267v2.403c0,8.123-2.633,17.048-7.896,26.771
	c-7.263,8.868-13.555,14.243-18.874,16.132c-5.264,2.517-11.442,4.348-18.534,5.492h-7.551c-14.531,0-25.056-6.178-31.577-18.534
	c-4.806-6.522-7.207-13.615-7.207-21.281v-3.774c0-13.328,2.744-23.968,8.236-31.921c3.375-7.264,8.523-12.87,15.445-16.817
	C402.703,23.012,406.479,21.639,410.541,21.639 M380.681,73.808v5.15c0,9.323,4.918,18.933,14.759,28.83
	c4.291,3.431,10.353,5.148,18.19,5.148h8.924c2.975,0,9.61-2.174,19.907-6.522c8.523-6.176,14.129-13.385,16.815-21.622
	c1.832-5.376,2.748-10.182,2.748-14.416v-4.118c-0.4-7.264-4.634-15.501-12.699-24.712c-9.896-9.151-18.248-13.729-25.055-13.729
	l-10.641-1.031h-3.775c-4.233,0-9.725,3.205-16.476,9.61c-8.235,11.384-12.355,21.795-12.355,31.234L380.681,73.808z
	 M390.978,63.511c1.315,0,2.688,2.518,4.118,7.551c0.858,0.973,2.002,3.376,3.434,7.207c6.577,8.638,10.582,13.443,12.012,14.417
	c3.146,2.058,5.548,3.088,7.209,3.088h4.461c5.663-0.742,11.038-3.031,16.131-6.865c5.72-8.123,8.582-16.016,8.582-23.683
	c1.027-0.915,1.83-1.373,2.401-1.373c1.602,0.688,2.402,1.718,2.402,3.09c0,7.037-2.86,14.93-8.581,23.683
	c-3.031,3.66-7.607,6.521-13.729,8.58c-3.376,1.145-6.12,1.717-8.238,1.717h-2.401c-7.036,0-14.358-5.721-21.966-17.161
	c-1.773-1.203-4.52-6.694-8.237-16.476v-2.06C389.262,64.084,390.062,63.511,390.978,63.511 M407.796,40.858h0.687
	c0.972,0,2.115,3.433,3.432,10.297c1.487,1.944,2.63,6.979,3.433,15.102v1.029c-0.4,2.061-1.316,3.089-2.746,3.089
	c-1.945,0-3.089-4.462-3.433-13.386c-1.602-3.488-2.976-7.949-4.118-13.385C405.394,41.774,406.308,40.858,407.796,40.858
	 M429.418,40.172c1.316,0,2.114,1.258,2.403,3.774v25.057c-0.173,2.518-1.087,3.776-2.746,3.776c-1.316,0-2.117-1.258-2.403-3.776
	V43.947C426.845,41.431,427.759,40.172,429.418,40.172"/>
</svg>
