<?xml version="1.0" standalone="no"?>
<!DOCTYPE svg PUBLIC "-//W3C//DTD SVG 20010904//EN"
 "http://www.w3.org/TR/2001/REC-SVG-20010904/DTD/svg10.dtd">
<svg version="1.0" xmlns="http://www.w3.org/2000/svg"
 width="800.000000pt" height="800.000000pt" viewBox="0 0 800.000000 800.000000"
 preserveAspectRatio="xMidYMid meet">
<metadata>
Created by potrace 1.11, written by Peter Selinger 2001-2013
</metadata>
<g transform="translate(0.000000,800.000000) scale(0.100000,-0.100000)"
fill="#000000" stroke="none">
<path d="M0 4000 l0 -4000 4000 0 4000 0 0 4000 0 4000 -4000 0 -4000 0 0
-4000z m3835 2734 c42 -17 75 -149 130 -529 14 -99 28 -190 30 -202 l5 -22 58
21 c82 29 258 36 337 13 73 -21 158 -63 209 -104 107 -85 216 -127 450 -172
180 -34 286 -66 363 -110 51 -29 153 -114 153 -128 0 -3 -44 -6 -97 -6 -88 0
-104 -3 -151 -28 -33 -17 -57 -38 -64 -55 -7 -15 -60 -76 -118 -137 -129 -134
-209 -232 -284 -347 -114 -175 -146 -275 -146 -459 0 -209 26 -311 107 -421
56 -76 95 -167 97 -228 1 -39 -2 -45 -19 -43 l-20 2 20 -14 c40 -28 45 -37 45
-79 0 -61 -33 -114 -116 -184 -39 -33 -82 -74 -97 -92 -54 -63 -26 -130 93
-225 l63 -50 -7 -113 -7 -113 35 -35 c19 -19 41 -34 50 -34 9 0 22 -15 29 -33
8 -18 33 -54 55 -80 23 -26 46 -66 52 -90 42 -160 57 -196 98 -239 l25 -28
-42 -99 c-89 -209 -208 -360 -326 -416 -49 -23 -77 -29 -155 -33 -95 -4 -114
-1 -355 53 -102 23 -231 30 -308 16 -36 -6 -144 -37 -239 -68 -167 -54 -177
-56 -283 -57 -130 0 -182 16 -300 95 -74 50 -224 200 -258 258 l-18 31 103 0
c91 0 111 3 154 25 27 13 57 38 67 54 21 36 22 132 3 241 -9 45 -10 83 -5 97
4 12 31 34 59 48 28 14 53 32 57 40 9 26 -7 83 -33 114 l-25 30 34 15 c72 30
86 93 37 169 -16 26 -30 51 -30 56 0 5 28 12 62 15 34 4 77 14 95 21 69 29 93
126 52 208 -12 23 -61 101 -109 173 -104 157 -125 210 -117 302 4 36 12 70 19
75 10 7 10 10 1 14 -22 8 -14 45 25 123 36 73 37 78 36 180 -3 192 -81 483
-195 719 -175 364 -412 599 -724 716 -32 13 -61 27 -63 33 -6 19 87 110 165
162 132 89 303 159 475 197 117 25 411 25 518 -1 116 -27 162 -30 197 -13 51
27 58 61 39 187 -33 214 -70 330 -127 395 l-33 37 28 54 c44 83 92 117 141 98z"/>
</g>
</svg>
